<svg xmlns="http://www.w3.org/2000/svg" viewBox="0 0 24 24">
  <path d="M1.7825875411758423,12.930990000000001Q1.4779505411758422,12,1.7818595411758422,11.07124Q1.9386445411758424,10.58826,2.251079541175842,10.18852Q2.425451541175842,9.96543,2.8798965411758424,9.51388L2.8818865411758425,9.5119Q4.7016365411758425,7.70238,6.6355465411758425,6.58187Q9.365706541175843,5,11.999986541175842,5Q14.634786541175842,5,17.364486541175843,6.58191Q19.296386541175842,7.70143,21.11858654117584,9.51238Q21.573086541175844,9.964929999999999,21.747486541175842,10.18798Q22.059686541175843,10.58735,22.21738654117584,11.069009999999999Q22.52208654117584,12,22.218186541175843,12.92876Q22.061386541175843,13.41174,21.748886541175843,13.81148Q21.574586541175844,14.03458,21.12008654117584,14.48612L21.118086541175842,14.4881Q19.298786541175843,16.2972,17.36438654117584,17.4177Q14.634286541175843,18.999000000000002,11.999986541175842,18.999000000000002Q9.365806541175843,18.999000000000002,6.635996541175842,17.4177Q4.702936541175842,16.2979,2.882156541175842,14.48837Q2.4278835411758424,14.03699,2.2518985411758425,13.81167Q1.9404015411758424,13.41285,1.7825875411758423,12.930990000000001L1.7825875411758423,12.930990000000001ZM3.6833265411758425,12.30876L3.6833265411758425,12.30876Q3.759476541175842,12.54067,4.291836541175842,13.06963Q5.929276541175843,14.69696,7.638506541175842,15.6871Q9.903256541175843,16.999000000000002,11.999986541175842,16.999000000000002Q14.096886541175842,16.999000000000002,16.361886541175842,15.6871Q18.072186541175842,14.69641,19.707886541175842,13.0699L19.710386541175843,13.06738Q20.24178654117584,12.53941,20.315886541175843,12.31124Q20.417686541175843,12,20.31658654117584,11.69099Q20.241386541175842,11.46129,19.707386541175843,10.92962Q18.069886541175844,9.302240000000001,16.361686541175843,8.312339999999999Q14.097086541175843,7,11.999986541175842,7Q9.903256541175843,7,7.638206541175842,8.312380000000001Q5.928296541175842,9.30311,4.292106541175842,10.9301L4.289576541175842,10.93261Q3.7582065411758423,11.46059,3.6841365411758424,11.68876Q3.5823365411758425,11.99987,3.6833265411758425,12.30876Z" fill-rule="evenodd" fill="#000000" fill-opacity="1"/>
  <path d="M11.999999642372131,9Q13.242639642372131,9.0000000596046,14.121319642372132,9.87868Q14.999999642372131,10.75736,14.999999642372131,12Q14.999999642372131,13.24264,14.121319642372132,14.12132Q13.242639642372131,15,11.999999642372131,15Q10.757359642372132,15,9.87867964237213,14.12132Q8.999999642372131,13.24264,8.999999642372131,12Q8.999999701976732,10.75736,9.87867964237213,9.87868Q10.757359642372132,9,11.999999642372131,9ZM11.999999642372131,11Q11.58578964237213,11,11.292889642372131,11.29289Q10.999999642372131,11.58579,10.999999642372131,12Q10.999999642372131,12.41421,11.292889642372131,12.70711Q11.58578964237213,13,11.999999642372131,13Q12.414209642372132,13,12.707109642372131,12.70711Q12.999999642372131,12.41421,12.999999642372131,12Q12.999999642372131,11.58579,12.707109642372131,11.29289Q12.414209642372132,11,11.999999642372131,11Z" fill-rule="evenodd" fill="#000000" fill-opacity="1"/>
</svg>
