<svg xmlns="http://www.w3.org/2000/svg" xmlns:xlink="http://www.w3.org/1999/xlink"
  version="1.1"
  viewBox="0 0 32 32">
  <path
    d="M12.93472843359375,1.386951453125C13.81606343359375,0.6909894331249999,14.86651243359375,0.333251953125,16.11534243359375,0.333251953125C17.36417243359375,0.333251953125,18.41136743359375,0.6909894331249999,19.28944943359375,1.383699553125C20.11387443359375,2.0341316531249998,20.69275843359375,2.912214553125,21.16757243359375,3.761028053125Q21.47489943359375,4.3138952531250006,21.75296043359375,4.873266653125Q22.31720743359375,4.749685253125,22.88633743359375,4.645616053125C23.85548043359375,4.474877853125,24.90917743359375,4.364304053125,25.94336343359375,4.590329153125C27.04909743359375,4.830988853125,27.99547543359375,5.421256553125,28.78900543359375,6.403408553125C29.63293843359375,7.442472453125,30.00368543359375,8.551458353125,29.96953743359375,9.740123753125C29.93701943359375,10.837727953125,29.55976843359375,11.894678953125,29.15324943359375,12.854066953125Q28.97600343359375,13.273594953125,28.78413043359375,13.694749953125Q29.22804843359375,14.062243953125,29.65733543359375,14.442745953125C30.40207643359375,15.106186953125,31.15332643359375,15.873695953125,31.62488743359375,16.833083953125C32.13060343359375,17.857512953125,32.25743443359375,18.982760953125,31.96799243359375,20.229964953125C31.69481043359375,21.415378953125,31.13218643359375,22.343869953125,30.28825343359375,23.039832953125C29.49147243359375,23.696767953125,28.53533743359375,24.069140953125,27.62310943359375,24.340697953125C27.21333543359375,24.464278953125,26.75803343359375,24.581355953125,26.28972443359375,24.696807953125C26.28159143359375,25.217153953125,26.26858343359375,25.727742953125,26.23605943359375,26.196054953125C26.16939343359375,27.124545953125,26.01166343359375,28.113202953125,25.54497743359375,29.015676953125C25.05389943359375,29.968560953125,24.28476543359375,30.703547953125,23.21642843359375,31.223893953125C22.04077143359375,31.797900953125,20.89763843359375,31.919856953125,19.76589043359375,31.640170953125C18.71381543359375,31.379996953125,17.78369743359375,30.797860953125,16.95602243359375,30.204341953125Q16.53649343359375,29.903518953125,16.12346843359375,29.586431953125Q15.71044443359375,29.901891953125,15.29579443359375,30.201089953125C14.46649343359375,30.794608953125,13.53637643359375,31.379996953125,12.48430243359375,31.641795953125C11.35092443359375,31.923108953125,10.20779043359375,31.801152953125,9.02888393359375,31.227145953125C7.96380183359375,30.706800953125,7.19466593359375,29.975064953125,6.70358943359375,29.023807953125C6.23690463359375,28.122958953125,6.07754893359375,27.137553953125,6.00925393359375,26.209062953125C5.97583203359375,25.707278953125,5.95793633359375,25.204579953125,5.95559313359375,24.701686953125C5.50991533359375,24.595634953125,5.06694313359375,24.478517953125,4.62708613359375,24.350451953125C3.71322913359375,24.077270953125,2.75709463359375,23.708150953125,1.95706303359375,23.049588953125C1.11150157359375,22.353625953125,0.5472518535937501,21.423507953125,0.27244451359375,20.236468953125C-0.015371666406250012,18.990890953125,0.10983640559375,17.868896953125,0.61392122359375,16.842839953125C1.08223223359375,15.885077953125,1.83348133359375,15.117567953125,2.57659933359375,14.452501953125Q3.00588463359375,14.070373953125,3.45468283359375,13.701252953125C3.32839803359375,13.424640953125,3.20534993359375,13.146562953125,3.08556273359375,12.867073953125C2.67904253359375,11.907686953125,2.29854013359375,10.850734953125,2.26439263359375,9.749879853125C2.23024513359375,8.562841453125,2.60099103359375,7.450603453125,3.44330053359375,6.408286053125C4.23682733359375,5.429386153125,5.18320563359375,4.837493453125,6.28731393359375,4.596833753125C7.31987433359375,4.369182553125,8.37357423359375,4.479755853125,9.34271713359375,4.650494553125Q9.91184523359375,4.751311753125,10.48097343359375,4.876519253125Q10.75740643359375,4.317147753125,11.06148343359375,3.770785053125C11.53629943359375,2.917093553125,12.11355743359375,2.040636053125,12.93472843359375,1.386951453125ZM8.92319013359375,7.879887553125L8.77684303359375,7.852243853125C7.92477753359375,7.702644853125,7.38004063359375,7.686384153125,6.98165083359375,7.774191853125C6.65480943359375,7.845738853125,6.33609773359375,8.005095053125,5.97185563359375,8.455518753125C5.58972643359375,8.927081153125,5.50517083359375,9.284819553125,5.51655293359375,9.653940153125C5.52956203359375,10.092981353125,5.68566513359375,10.653977953125,6.03689863359375,11.496287953125C6.64039473359375,10.934409953125,7.21049643359375,10.337704953125,7.74428173359375,9.709227553125C8.20283703359375,9.070178053125,8.58659173359375,8.463649753125,8.92319013359375,7.879887553125ZM7.42719603359375,14.618361953125C8.44396683359375,13.738116953125,9.39353183359375,12.783117953125,10.26795843359375,11.761339953125L10.30698443359375,11.712557953125L10.34438343359375,11.663774953125C11.10051043359375,10.613327953125,11.72329943359375,9.554750453125,12.24689643359375,8.582354553125C13.37864743359375,8.798622153125,14.65674643359375,8.988873453125,16.02753243359375,9.057169953125L16.10721143359375,9.060421953125L16.18688943359375,9.057169953125C17.56580343359375,8.990501453125,18.84878143359375,8.796997053125,19.98541043359375,8.580728553125C20.50575643359375,9.548245453125,21.12366343359375,10.598693953125,21.87491443359375,11.641009953125L21.91069043359375,11.691418953125L21.95134143359375,11.740200953125C22.83041143359375,12.768665953125,23.78602243359375,13.729167953125,24.80998643359375,14.613483953125C24.17322343359375,16.101731953125,23.67674443359375,17.646157953125,23.32700143359375,19.226670953125L23.31399543359375,19.286836953125L23.30586843359375,19.348628953125C23.18116043359375,20.275298953125,23.10355043359375,21.207698953125,23.07333943359375,22.142234953125C22.14321943359375,22.392650953125,21.12529143359375,22.708110953125,20.04395143359375,23.139020953125L19.98541043359375,23.161786953125L19.93012443359375,23.189429953125C18.45039343359375,23.914662953125,17.18855443359375,24.737456953125,16.12021943359375,25.508218953125C14.92529143359375,24.632621953125,13.65776343359375,23.860679953125,12.33145443359375,23.200810953125L12.27454043359375,23.173167953125L12.21762743359375,23.150401953125C11.22058943359375,22.756530953125,10.20148343359375,22.420991953125,9.16547583359375,22.145486953125C9.13551993359375,21.219155953125,9.05899903359375,20.294917953125,8.93619923359375,19.376271953125L8.92806813359375,19.316106953125L8.91505913359375,19.255940953125C8.56468103359375,17.666903953125,8.06599903359375,16.114243953124998,7.42719603359375,14.618361953125ZM4.80758193359375,16.820073953125L4.74091293359375,16.880239953125C4.07584623359375,17.472131953125,3.71648243359375,17.899791953125,3.53110933359375,18.275413953125C3.37988373359375,18.584369953125,3.30833623359375,18.935603953125,3.44004913359375,19.504729953125C3.56688333359375,20.055970953125,3.77502153359375,20.335656953125,4.02218583359375,20.538917953125C4.31650643359375,20.782828953125,4.77668663359375,21.002347953125,5.55395313359375,21.233253953125L5.86616043359375,21.322688953125C5.83334443359375,20.838866953125,5.78507993359375,20.356215953125,5.72143933359375,19.875478953125C5.49418973359375,18.835452953125,5.18870113359375,17.814078953125,4.80758193359375,16.820073953125ZM9.22726723359375,25.545617953125Q9.23702433359375,25.765140953125,9.25165943359375,25.971650953125C9.30694483359375,26.735908953125,9.42239763359375,27.207473953125,9.58988383359375,27.529435953125C9.73135283359375,27.802619953125,9.95737743359375,28.062791953125,10.45333243359375,28.305076953125C10.98993743359375,28.565248953125,11.35418043359375,28.571752953125,11.69890943359375,28.483945953125C12.12168943359375,28.379876953125,12.63553143359375,28.105067953125,13.39003143359375,27.565209953125C12.61000143359375,27.038833953125,11.79569243359375,26.565131953125,10.95253843359375,26.147267953125C10.38573143359375,25.923711953125,9.81017783359375,25.722999953125,9.22726723359375,25.545617953125ZM18.85365843359375,27.563582953125C19.60816043359375,28.103442953125,20.12200143359375,28.376622953125,20.54478443359375,28.482320953125C20.88951143359375,28.568501953125,21.25537843359375,28.561996953125,21.78873643359375,28.301824953125C22.28631743359375,28.057910953125,22.51234243359375,27.797738953125,22.65380843359375,27.524558953125C22.82129243359375,27.200969953125,22.93511943359375,26.729403953125,22.99040843359375,25.963521953125Q23.00503943359375,25.757009953125,23.01317043359375,25.542367953125C22.46030643359375,25.711478953125,21.89117843359375,25.904981953125,21.30579043359375,26.137513953125C20.37892143359375,26.594440953125,19.57889143359375,27.077386953125,18.85365843359375,27.563582953125ZM26.37265443359375,21.317811953125L26.68973743359375,21.226748953125C27.46375243359375,20.994220953125,27.92230643359375,20.773074953125,28.21825443359375,20.530786953125C28.46216743359375,20.327527953125,28.67193243359375,20.047841953125,28.79876743359375,19.498225953125C28.92885243359375,18.927470953125,28.85730543359375,18.574611953125,28.70607943359375,18.267283953125C28.52070643359375,17.891658953125,28.15971543359375,17.464000953125,27.49139643359375,16.868854953125L27.42960343359375,16.813567953125C27.05052543359375,17.801318953125,26.74613143359375,18.816134953125,26.51900143359375,19.849460953125Q26.42143843359375,20.605588953125,26.37265443359375,21.317811953125ZM26.19703643359375,11.489783953125C26.54827343359375,10.647475953125,26.70437443359375,10.088104253125,26.71738243359375,9.647436153125C26.72876543359375,9.278315553125,26.64258343359375,8.918952953125,26.26207943359375,8.449014653125C25.89621343359375,7.998590953125,25.57913043359375,7.839234853125,25.25066143359375,7.767688253125C24.85227043359375,7.681506153125,24.30753543359375,7.697767253125,23.45221743359375,7.848991853125L23.30912443359375,7.875009553125C23.64409443359375,8.453893653125,24.02459943359375,9.055543853125,24.47664843359375,9.689714453125C25.06203643359375,10.377545953125,25.63603943359375,10.964561953125,26.19703643359375,11.489783953125ZM18.44063943359375,5.554593553125L18.32681243359375,5.346455053125C17.91216243359375,4.604963253125,17.58532143359375,4.183808553125,17.27148643359375,3.935018253125C17.01131443359375,3.730131853125,16.68935043359375,3.585410853125,16.11371843359375,3.585410853125C15.53808643359375,3.585410853125,15.21612143359375,3.731757853125,14.95594943359375,3.936644353125C14.64211543359375,4.185434353125,14.31527443359375,4.608215353125,13.90062343359375,5.351333153125L13.79004943359375,5.556219553125C14.50227243359375,5.670044853125,15.26490443359375,5.761105553125,16.10721343359375,5.805010353125C16.95602643359375,5.761105553125,17.72353743359375,5.670044853125,18.44063943359375,5.554593553125Z"
    fill="currentColor" fill-rule="evenodd" />
</svg>
