<svg enable-background="new 0 0 24 24" viewBox="0 0 24 24" xmlns="http://www.w3.org/2000/svg"><path clip-rule="evenodd" d="m23.1 8c-.1-.5-.3-.9-.9-1.9s-.8-1.4-1.2-1.7c-.5-.4-1.1-.5-1.7-.4-.3 0-.6.2-1 .4-.6.3-1.3.3-1.9 0s-.9-.9-.9-1.6c0-.4-.1-.8-.2-1-.2-.7-.6-1.1-1.2-1.4-.4-.2-1-.2-2.1-.2s-1.7 0-2.1.2c-.6.2-1 .7-1.3 1.3-.1.3-.1.6-.1 1 0 .7-.4 1.3-.9 1.6-.6.3-1.3.3-1.9-0-.4-.2-.7-.3-1-.3-.6-.1-1.2 0-1.7.4-.4.3-.7.8-1.2 1.7-.6 1-.9 1.5-.9 1.9-.1.6.1 1.3.4 1.8.2.2.4.4.8.7.6.3.9.9.9 1.6s-.4 1.2-.9 1.6c-.4.2-.6.4-.8.7-.3.3-.5 1-.4 1.6.1.5.3.9.9 1.9.6.9.8 1.4 1.2 1.7.5.4 1.1.5 1.7.4.3 0 .6-.2 1-.4.6-.3 1.3-.3 1.9 0s.9.9.9 1.6c0 .4.1.8.2 1 .2.6.7 1 1.3 1.3.2.1.4.1.7.2-1.9-1.7-3.1-4.1-3.1-6.8 0-1.4.3-2.8.9-4-.1-.3-.1-.5-.1-.8 0-1.9 1.5-3.5 3.5-3.5.3 0 .6 0 .9.1 1.2-.6 2.5-.9 4-.9 2.2 0 4.2.8 5.8 2.1 0-.1.1-.1.1-.2.3-.4.5-1.1.4-1.7z" fill-rule="evenodd"/><path d="m16.8 9.9c-3.9 0-7 3.1-7 7s3.1 7 7 7 7-3.1 7-7-3.1-7-7-7zm0 11.6c-2.5 0-4.7-2-4.7-4.7 0-2.5 2.1-4.7 4.7-4.7s4.7 2 4.7 4.7-2.2 4.7-4.7 4.7z"/><path d="m18.8 18.7h-2.7c-.7 0-1.2-.5-1.2-1.2v-2.7c0-.7.5-1.2 1.2-1.2s1.2.5 1.2 1.2v1.5h1.5c.7 0 1.2.5 1.2 1.2s-.5 1.2-1.2 1.2z"/></svg>