<svg xmlns="http://www.w3.org/2000/svg" viewBox="0 0 24 24">
  <path fill="currentColor" d="m8.8 10.95l2.15-2.175l-1.4-1.425l-.4.4q-.275.275-.687.288T7.75 7.75t-.3-.712t.3-.713l.375-.375L7 4.825L4.825 7zm8.2 8.225L19.175 17l-1.125-1.125l-.4.375q-.3.3-.7.3t-.7-.3t-.3-.7t.3-.7l.375-.4l-1.425-1.4l-2.15 2.15zm-.775-12.75l1.4 1.4l1.4-1.4L17.6 5zM4 21q-.425 0-.712-.288T3 20v-2.825q0-.2.075-.387t.225-.338l4.075-4.075L3.05 8.05Q2.625 7.625 2.625 7t.425-1.05l2.9-2.9q.425-.425 1.05-.412t1.05.437L12.4 7.4l3.775-3.8q.3-.3.675-.45t.775-.15t.775.15t.675.45L20.4 4.95q.3.3.45.675T21 6.4t-.15.763t-.45.662l-3.775 3.8l4.325 4.325q.425.425.425 1.05t-.425 1.05l-2.9 2.9q-.425.425-1.05.425t-1.05-.425l-4.325-4.325L7.55 20.7q-.15.15-.337.225T6.825 21z"/>
</svg>
