<svg xmlns="http://www.w3.org/2000/svg" viewBox="0 0 24 24">
  <g fill="none" fill-rule="evenodd">
    <path d="M24 0v24H0V0zM12.593 23.258l-.011.002l-.071.035l-.02.004l-.014-.004l-.071-.035q-.016-.005-.024.005l-.004.01l-.017.428l.005.02l.01.013l.104.074l.015.004l.012-.004l.104-.074l.012-.016l.004-.017l-.017-.427q-.004-.016-.017-.018m.265-.113l-.013.002l-.185.093l-.01.01l-.003.011l.018.43l.005.012l.008.007l.201.093q.019.005.029-.008l.004-.014l-.034-.614q-.005-.019-.02-.022m-.715.002a.02.02 0 0 0-.027.006l-.006.014l-.034.614q.001.018.017.024l.015-.002l.201-.093l.01-.008l.004-.011l.017-.43l-.003-.012l-.01-.01z"/>
    <path fill="currentColor" d="M20.989 12.446a9 9 0 0 1-13.1 7.563a28 28 0 0 0 2.813-1.129a50 50 0 0 0 4.048-2.117a50 50 0 0 0 3.858-2.448a28 28 0 0 0 2.381-1.869M11.999 3c2.226 0 4.263.808 5.834 2.146l.317-.072l.167-.034l.346-.064l.359-.054c1.275-.167 2.706-.072 3.37 1.078c.762 1.32-.058 2.784-.957 3.862l-.225.262l-.223.243c-1.394 1.478-3.703 3.201-6.987 5.097s-5.93 3.034-7.908 3.503l-.159.036l-.331.069l-.346.06c-1.347.205-2.918.133-3.649-1.132c-.663-1.15-.03-2.436.751-3.457l.226-.284l.115-.136l.227-.258l.22-.24A9 9 0 0 1 12 3ZM3.872 15.869l-.154.213c-.165.235-.347.525-.374.788v.128c.14.25.637.252 1.002.225l.304-.03a9 9 0 0 1-.778-1.325Zm16.785-8.867c-.202-.15-.533-.164-.834-.145l-.285.025q-.066.008-.124.013q.436.631.761 1.334l.161-.225c.189-.273.42-.662.357-.922L20.66 7l-.004.002Z"/>
  </g>
</svg>
