<svg xmlns="http://www.w3.org/2000/svg"
  xmlns:xlink="http://www.w3.org/1999/xlink" version="1.1" viewBox="0 0 512 512">
  <path d="M255.999,45C139.9509,45,45,139.9511,45,256C45,372.054,139.9509,467,255.999,467C275.93,467,291.166,451.764,291.166,431.833C291.166,422.458,287.652,414.25,281.791,408.389C275.93,402.527,272.416,394.319,272.416,384.944C272.416,365.014,287.652,349.777,307.582,349.777L349.778,349.777C414.25,349.777,467,297.027,467,232.556C466.999,129.4022,372.054,45,255.999,45ZM127.0557,256C107.1251,256,91.8891,240.764,91.8891,220.833C91.8891,200.903,107.1251,185.667,127.0557,185.667C146.985,185.667,162.22199999999998,200.903,162.22199999999998,220.833C162.22199999999998,240.764,146.985,256,127.0557,256ZM197.389,162.223C177.458,162.223,162.22199999999998,146.986,162.22199999999998,127.0559C162.22199999999998,107.1252,177.458,91.8892,197.389,91.8892C217.318,91.8892,232.555,107.1252,232.555,127.0559C232.555,146.986,217.318,162.223,197.389,162.223ZM314.61,162.223C294.68100000000004,162.223,279.443,146.986,279.443,127.0559C279.443,107.1252,294.68100000000004,91.8892,314.61,91.8892C334.541,91.8892,349.777,107.1252,349.777,127.0559C349.777,146.986,334.541,162.223,314.61,162.223ZM384.943,256C365.014,256,349.777,240.764,349.777,220.833C349.777,200.903,365.014,185.667,384.943,185.667C404.874,185.667,420.11,200.903,420.11,220.833C420.11,240.764,404.874,256,384.943,256Z" fill="currentcolor"/>
</svg>
