<svg enable-background="new 0 0 1024 1024" viewBox="0 0 1024 1024" xmlns="http://www.w3.org/2000/svg"><path d="m794.2 166.3-282.4 282.5-282.5-282.5c-16.2-16.2-42.5-16.2-58.7 0s-16.2 42.5 0 58.7l282.4 282.5-282.4 282.4c-16.2 16.2-16.2 42.5 0 58.7s42.5 16.2 58.7 0l282.4-282.4 282.4 282.4c16.2 16.2 42.5 16.2 58.7 0s16.2-42.5 0-58.7l-282.3-282.4 282.4-282.4c16.2-16.2 16.2-42.5 0-58.7-16.2-16.3-42.5-16.3-58.7-.1z"/><path clip-rule="evenodd" d="m876 174.4c-2.9-7.1-7-13.3-12.4-18.7s-11.7-9.6-18.7-12.4c-6.8-2.8-13.9-4.1-21.3-4.1s-14.5 1.4-21.3 4.1c-7.1 2.9-13.3 7-18.7 12.4l-271.8 271.8-271.8-271.8c-5.4-5.4-11.7-9.6-18.7-12.4-6.8-2.8-13.9-4.1-21.3-4.1s-14.5 1.4-21.3 4.1c-7.1 2.9-13.3 7-18.7 12.4s-9.6 11.7-12.4 18.7c-2.8 6.8-4.1 13.9-4.1 21.3s1.4 14.5 4.1 21.3c2.9 7.1 7 13.3 12.4 18.7 0 0 .1.1.1.1l271.7 271.7-271.8 271.8c-5.4 5.4-9.6 11.7-12.4 18.7-2.8 6.8-4.1 13.9-4.1 21.3s1.4 14.5 4.1 21.3c2.9 7.1 7 13.3 12.4 18.7s11.7 9.6 18.7 12.4c6.8 2.8 13.9 4.1 21.3 4.1s14.5-1.4 21.3-4.1c7.1-2.9 13.3-7 18.7-12.4l271.8-271.8 271.8 271.8c5.4 5.4 11.7 9.6 18.7 12.4 6.8 2.8 13.9 4.1 21.3 4.1s14.5-1.4 21.3-4.1c7.1-2.9 13.3-7 18.7-12.4s9.6-11.7 12.4-18.7c2.8-6.8 4.1-13.9 4.1-21.3s-1.4-14.5-4.1-21.3c-2-5-4.7-9.6-8-13.8v-.5l-4.4-4.4-271.8-271.8 271.8-271.8c5.4-5.4 9.6-11.7 12.4-18.7 2.8-6.8 4.1-13.9 4.1-21.3s-1.3-14.5-4.1-21.3zm-42.5-3.2c3.3 1.3 6.2 3.3 8.8 5.8 2.5 2.5 4.5 5.5 5.8 8.8 1.3 3.2 1.9 6.5 1.9 10s-.6 6.8-1.9 10c-1.3 3.3-3.3 6.2-5.8 8.7l-293.1 293 288.7 288.7 4.4 4.4c2.5 2.5 4.5 5.5 5.8 8.8 1.3 3.2 1.9 6.5 1.9 10s-.6 6.8-1.9 10c-1.3 3.3-3.3 6.2-5.8 8.8-2.5 2.5-5.5 4.5-8.8 5.8-3.2 1.3-6.5 1.9-10 1.9s-6.8-.6-10-1.9c-3.3-1.3-6.2-3.3-8.8-5.8l-292.9-293.3-293 293c-2.5 2.5-5.5 4.5-8.8 5.8-3.2 1.3-6.5 1.9-10 1.9s-6.8-.6-10-1.9c-3.3-1.3-6.2-3.3-8.8-5.8-2.5-2.5-4.5-5.5-5.8-8.8-1.3-3.2-1.9-6.5-1.9-10s.6-6.8 1.9-10c1.3-3.3 3.3-6.2 5.8-8.7l293.1-293.1-293.2-293c-2.5-2.5-4.4-5.4-5.7-8.6s-1.9-6.5-1.9-10 .6-6.8 1.9-10c1.3-3.3 3.3-6.2 5.8-8.8s5.5-4.5 8.8-5.8c3.2-1.3 6.5-1.9 10-1.9s6.8.6 10 1.9c3.3 1.3 6.2 3.3 8.7 5.8l293.1 293.1 293-293c2.5-2.5 5.5-4.5 8.8-5.8 3.2-1.3 6.5-1.9 10-1.9 3.4-.1 6.8.6 9.9 1.9z" fill-rule="evenodd"/></svg>