<svg viewBox="0 0 32 32"
  xmlns="http://www.w3.org/2000/svg">
  <path d="m5.16667 27q-.92083 0-1.542662-.6336-.62183336-.6336-.62400064-1.5664-.00216728-.9328.62399964-1.5664.626163-.6336 1.542663-.6336h13.00003q.9208 0 1.5448.6336.624.6336.6218 1.5664-.0021.9328-.624 1.5686-.6218.6358-1.5426.6314zm0-8.8q-.92083 0-1.542662-.6336-.62183336-.6336-.62400064-1.5664-.00216728-.9328.62399964-1.56641.626163-.6336 1.542663-.6336h21.66663q.9209 0 1.5449.6336.624.63361.6218 1.56641-.0022.9328-.624 1.5686-.6218.6358-1.5427.6314zm0-8.80001q-.92083 0-1.542662-.6336-.62183336-.63359-.62400064-1.56639-.00216728-.9328.62399964-1.566401.626163-.633599 1.542663-.633599h21.66663q.9209 0 1.5449.633599.624.633601.6218 1.566401-.0022.9328-.624 1.56859-.6218.6358-1.5427.6314z"/>
</svg>
