<svg xmlns="http://www.w3.org/2000/svg" viewBox="0 0 24 24">
  <path d="M2.9999991290664676,4C2.9999991290664676,4.26522,3.1053591290664673,4.51957,3.2928891290664675,4.70711L5.732649129066467,7.14687Q4.273629129066467,8.12791,2.882869129066467,9.510919999999999Q2.427964129066467,9.96292,2.2527321290664672,10.18703Q1.9401931290664673,10.58673,1.7824691290664674,11.06937Q1.4779501290664672,12,1.7825871290664672,12.93099Q1.9386451290664672,13.4117,2.2510801290664673,13.8115Q2.425454129066467,14.0346,2.8798991290664673,14.4861L2.8821591290664674,14.4884Q4.701639129066468,16.2976,6.635539129066467,17.418100000000003Q9.365709129066467,19,12.000039129066467,19Q14.203039129066468,19,16.47723912906647,17.8914L19.29293912906647,20.7071C19.48043912906647,20.8946,19.73473912906647,21,20.00003912906647,21C20.552239129066468,21,21.00003912906647,20.5523,21.00003912906647,20C21.00003912906647,19.7348,20.894639129066466,19.4804,20.707139129066466,19.2929L4.707109129066467,3.292893C4.5195691290664675,3.105357,4.265219129066468,3,3.999999129066467,3C3.447719129066467,3,2.9999991290664676,3.447715,2.9999991290664676,4ZM10.873369129066468,5.07205Q11.437759129066468,5,12.000039129066467,5Q14.634739129066467,5,17.364539129066465,6.581910000000001Q19.296339129066467,7.70143,21.117939129066468,9.511700000000001Q21.572139129066468,9.96301,21.748139129066466,10.18833Q22.05963912906647,10.587150000000001,22.217339129066467,11.06876Q22.522239129066467,12.0005,22.217439129066467,12.93199Q22.060539129066466,13.4121,21.748339129066466,13.8113Q21.574239129066466,14.0339,21.12063912906647,14.4856L21.11913912906647,14.4871Q20.638239129066466,14.9645,20.160539129066468,15.3848C19.978039129066467,15.5454,19.743139129066467,15.634,19.50003912906647,15.634C18.947739129066466,15.634,18.50003912906647,15.1863,18.50003912906647,14.634C18.50003912906647,14.3466,18.62363912906647,14.0731,18.839439129066466,13.8832Q19.271939129066467,13.5027,19.704939129066467,13.0729L19.709439129066467,13.0684Q20.242139129066466,12.53797,20.316539129066467,12.31001Q20.41783912906647,12.0005,20.316639129066466,11.69124Q20.24083912906647,11.45962,19.708039129066467,10.93029Q18.069939129066466,9.302240000000001,16.361739129066468,8.312339999999999Q14.097139129066468,7,12.000039129066467,7Q11.566549129066468,7,11.129939129066468,7.05553L11.126699129066468,7.05594C11.084639129066467,7.06131,11.042339129066468,7.064,10.999999129066467,7.064C10.447719129066467,7.064,9.999999129066467,6.61628,9.999999129066467,6.064C9.999999129066467,5.56067,10.374089129066467,5.13579,10.873369129066468,5.07205ZM4.293129129066467,10.929079999999999Q5.706849129066467,9.523240000000001,7.177589129066467,8.591809999999999L9.286599129066467,10.70081Q9.001079129066468,11.28924,8.999189129066467,11.99277Q8.995949129066467,13.2008,9.830739129066467,14.074Q10.665529129066467,14.9471,11.872439129066468,14.9982Q12.647639129066468,15.0309,13.298539129066468,14.7128L14.964439129066466,16.378700000000002Q13.441339129066467,17,12.000039129066467,17Q9.903259129066468,17,7.6382091290664675,15.6876Q5.928299129066468,14.6969,4.291839129066467,13.0696L4.2895791290664675,13.0674Q3.758209129066467,12.53941,3.6834091290664674,12.30901Q3.582299129066467,12,3.6835291290664673,11.69063Q3.758949129066467,11.45985,4.293129129066467,10.929079999999999ZM11.276369129066467,12.69187Q11.267079129066467,12.68215,11.258099129066467,12.67231L11.331819129066467,12.74603Q11.303499129066468,12.72025,11.276369129066467,12.69187Z" fill-rule="evenodd" fill="#000000" fill-opacity="1"/>
</svg>
