<svg xmlns="http://www.w3.org/2000/svg" xmlns:xlink="http://www.w3.org/1999/xlink" width="400" height="172" viewBox="0 0 400 172" version="1.1">
    <title>品牌LOGO/基础徽标</title>
    <defs>
        <radialGradient cx="38.1747213%" cy="86.0776601%" fx="38.1747213%" fy="86.0776601%" r="97.067379%" gradientTransform="translate(0.381747,0.860777),scale(0.855365,1.000000),rotate(-46.300512),translate(-0.381747,-0.860777)" id="radialGradient-1">
            <stop stop-color="#178F67" offset="0%"/>
            <stop stop-color="#31CC79" stop-opacity="0.55" offset="54.6847684%"/>
            <stop stop-color="#53E68D" stop-opacity="0.8" offset="100%"/>
        </radialGradient>
        <path d="M76.5669734,7.10542736e-15 L77.1322485,7.10542736e-15 L77.6317133,7.10542736e-15 L77.6317133,7.10542736e-15 L78.1408771,0.00258488427 L78.1408771,0.00258488427 L78.6596574,0.00531653925 L78.6596574,0.00531653925 L79.1879717,0.00906258891 L79.1879717,0.00906258891 L79.7257374,0.0138642228 L79.7257374,0.0138642228 L80.2728723,0.0197626306 L80.2728723,0.0197626306 L80.8292937,0.0267990018 L80.8292937,0.0267990018 L81.2053598,0.0321424584 L81.2053598,0.0321424584 L81.5854921,0.0380221872 L81.5854921,0.0380221872 L82.1632615,0.0478739881 L82.1632615,0.0478739881 L82.7500426,0.0590010511 L82.7500426,0.0590010511 L83.3457529,0.0714445656 L83.3457529,0.0714445656 L83.7478131,0.0804919445 L83.7478131,0.0804919445 L84.3582221,0.0952210775 L84.3582221,0.0952210775 L84.9773405,0.111376501 L84.9773405,0.111376501 L85.6050857,0.128999405 L85.6050857,0.128999405 L86.0283344,0.141583614 L86.0283344,0.141583614 L86.6702744,0.16174385 L86.6702744,0.16174385 L87.3206213,0.183481406 L87.3206213,0.183481406 L87.7588157,0.198869738 L87.7588157,0.198869738 L88.2006854,0.214989611 L88.2006854,0.214989611 L88.646206,0.231853231 L88.646206,0.231853231 L89.095353,0.249472801 L89.095353,0.249472801 L89.5481021,0.267860525 L89.5481021,0.267860525 L90.0044287,0.287028607 L90.0044287,0.287028607 L90.6955731,0.317270601 L90.6955731,0.317270601 L91.1607368,0.338442975 L91.1607368,0.338442975 L91.8650223,0.371748612 L91.8650223,0.371748612 L92.3388702,0.395001554 L92.3388702,0.395001554 L92.8161492,0.419108079 L92.8161492,0.419108079 L93.5384472,0.456895037 L93.5384472,0.456895037 L94.0241967,0.483188918 L94.0241967,0.483188918 L94.5132916,0.510379099 L94.5132916,0.510379099 L95.0057075,0.538477785 L95.0057075,0.538477785 L95.50142,0.567497179 L95.50142,0.567497179 L96.0004046,0.597449485 L96.0004046,0.597449485 L96.5026369,0.628346909 L96.5026369,0.628346909 L97.0080925,0.660201654 L97.0080925,0.660201654 L97.5167469,0.693025925 L97.5167469,0.693025925 L98.0285757,0.726831926 L98.0285757,0.726831926 L98.5435545,0.761631861 L98.5435545,0.761631861 C117.034398,2.0253048 121.931513,15.3414752 122.4526,16.9348664 L122.480007,17.0204228 L122.480007,17.0204228 L122.501293,17.0905166 L122.501293,17.0905166 L130.528463,17.527597 L130.528463,17.527597 C130.956829,17.527597 131.304088,17.8748563 131.304088,18.3032223 C131.304088,18.6102515 131.125693,18.8756143 130.866902,19.001311 C122.627285,23.459864 120.110054,32.5194451 121.589956,38.4207668 C122.066913,40.3227016 122.807951,41.9576385 123.632928,43.6857144 L124.154166,44.7734635 C126.06382,48.7676736 128.207925,53.6041208 128.558054,63.3380184 C129.341811,85.1272154 110.188775,104.710669 87.5256709,104.710669 L87.2776773,104.710768 L87.2776773,104.710768 L86.7483602,104.711559 L86.7483602,104.711559 L85.8710598,104.714228 L85.8710598,104.714228 L85.2306429,104.716996 L85.2306429,104.716996 L84.1866928,104.722631 L84.1866928,104.722631 L83.4351761,104.727377 L83.4351761,104.727377 L82.6392196,104.732913 L82.6392196,104.732913 L81.3619599,104.742701 L81.3619599,104.742701 L79.9847105,104.754268 L79.9847105,104.754268 L78.5074713,104.767614 L78.5074713,104.767614 L76.3822793,104.788178 L76.3822793,104.788178 L74.6717306,104.805677 L74.6717306,104.805677 L71.5986165,104.838796 L71.5986165,104.838796 L68.247753,104.876858 L68.247753,104.876858 L64.6191401,104.919864 L64.6191401,104.919864 L62.3086527,104.94804 L62.3086527,104.94804 L59.072463,104.988376 L59.072463,104.988376 L54.7772515,105.043245 L54.7772515,105.043245 L50.2042906,105.103058 L50.2042906,105.103058 L46.3459423,105.154467 L46.3459423,105.154467 L40.2251205,105.237512 L40.2251205,105.237512 L35.9223732,105.29683 L35.9223732,105.29683 L27.9648312,105.408249 L27.9648312,105.408249 L19.4629003,105.529357 L19.4629003,105.529357 L11.7422419,105.640875 L11.7422419,105.640875 L7.73192805,105.699303 L56.1964377,50.5871031 L56.635628,50.0864867 L56.635628,50.0864867 L57.0736267,49.5883461 L57.0736267,49.5883461 L57.5103344,49.0925508 L57.5103344,49.0925508 L59.6710229,46.644195 L59.6710229,46.644195 L60.0978937,46.1597356 L60.0978937,46.1597356 L60.5227766,45.6767094 L60.5227766,45.6767094 L60.9455719,45.1949862 C61.0158583,45.1148003 61.0860536,45.0346632 61.1561557,44.9545724 L61.5756332,44.474559 C61.6453542,44.3946418 61.7149778,44.3147654 61.784502,44.2349269 L62.2004376,43.7563303 L62.2004376,43.7563303 L62.6138875,43.2785153 C67.4225824,37.7080595 71.7034531,32.2705719 74.7450927,26.0348089 C78.1214028,16.4988117 74.6843141,9.38305492 71.1757692,5.07151589 C70.9048753,4.73862305 70.6335555,4.42244713 70.3649128,4.12316484 C69.1688678,2.59214492 69.9832221,0.0413893594 72.2608727,0.0413893594 C72.4464618,0.0413893594 72.6358217,0.0385210247 72.8289348,0.0348208586 L73.2697649,0.0259509195 C73.3691312,0.0240497295 73.4694324,0.0223224261 73.5706664,0.0210235721 L73.9912023,0.0159855363 L73.9912023,0.0159855363 L74.4220699,0.0115567163 L74.4220699,0.0115567163 L74.715014,0.00896292759 L74.715014,0.00896292759 L75.4671436,0.00382294169 L75.4671436,0.00382294169 L76.08898,0.00119436085 L76.08898,0.00119436085 L76.5669734,7.10542736e-15 L76.5669734,7.10542736e-15 Z" id="path-2"/>
        <linearGradient x1="81.4682253%" y1="57.1884468%" x2="-8.23595123%" y2="79.1237607%" id="linearGradient-3">
            <stop stop-color="#FFFFFF" stop-opacity="0" offset="0%"/>
            <stop stop-color="#D6F056" offset="100%"/>
        </linearGradient>
        <path d="M56.1964377,50.5871031 C35.2204038,74.1922716 10.2554857,102.912753 0.779178886,113.701435 C-1.0463188,115.779747 0.723009731,117.742294 2.13706727,117.985398 C72.8364108,130.140028 95.2838946,96.8230809 100.284077,81.5928901 C107.125296,60.7550365 97.4590008,50.5871031 91.9885566,47.2713133 C73.4385958,36.0276614 59.6753666,46.6721256 56.1964377,50.5871031 Z" id="path-4"/>
    </defs>
    <g id="品牌LOGO/基础徽标" stroke="none" stroke-width="1" fill="none" fill-rule="evenodd">
        <g id="语" transform="translate(177.885407, 41.897941)" fill="#262626">
            <path d="M17.3948075,26.7122232 C20.0317983,26.7122232 22.1695016,28.8499266 22.1695016,31.4869173 L22.1695016,74.8737418 C22.1695016,76.3420437 22.7756108,77.2294091 23.558586,77.738021 L23.6242341,77.7795329 C23.7342994,77.8472726 23.8475464,77.9078145 23.9628252,77.9617002 L24.032227,77.9932372 L24.0670936,78.0084147 L24.1363255,78.0372812 L24.2058998,78.0646496 L24.275763,78.0905449 C24.310758,78.1031285 24.3458413,78.1151692 24.3809831,78.126681 L24.4684901,78.1542306 C24.6144786,78.1983559 24.7610427,78.2335955 24.9060449,78.2609561 L24.9928418,78.276435 L25.0791612,78.2900712 L25.1649007,78.3019131 C25.1933725,78.3055668 25.2217304,78.3089294 25.2499576,78.312009 L25.3342293,78.3204072 L25.4258079,78.3277357 C25.5168051,78.3340897 25.60599,78.3375522 25.6927501,78.3384118 L25.7359252,78.3386261 C26.0628822,78.3386261 26.40707,78.3321504 26.7684887,78.3191991 L27.0119872,78.3096055 C27.1350128,78.3043291 27.2599529,78.2983331 27.3868076,78.2916176 L27.6430697,78.2772273 L27.7731153,78.2693126 L28.0370355,78.2520442 L28.1709102,78.2426904 L28.4424886,78.222544 L28.7191724,78.2004788 C28.8505767,78.1896424 28.9658844,78.2873832 28.9767194,78.4187875 C28.97867,78.4424442 28.9770817,78.4662596 28.9720067,78.4894477 L27.6300414,85.2178868 C27.3422291,86.532936 26.1776429,87.4702059 24.8314667,87.4702059 L20.2319492,87.4702059 C16.5524868,87.4702059 11.5458072,84.3508248 11.5458072,75.4786951 L11.5458072,35.6647747 C11.5458072,35.005527 11.0113814,34.4711011 10.3521337,34.4711011 L2.83199045,34.4711011 C1.97496846,34.4711011 1.28021486,33.7763475 1.28021486,32.9193256 L1.28021486,28.2639988 C1.28021486,27.4069768 1.97496846,26.7122232 2.83199045,26.7122232 L17.3948075,26.7122232 Z M80.6192181,55.3463475 C83.783607,55.3463475 86.3488511,57.9115915 86.3488511,61.0759804 L86.3488511,61.6270995 L86.3702698,61.627174 L86.3702698,82.5164607 L86.3488511,82.5163863 L86.3488511,83.2923485 C86.3488511,85.9293393 84.2111477,88.0670427 81.574157,88.0670427 L40.7505222,88.0670427 C38.1135315,88.0670427 35.9758281,85.9293393 35.9758281,83.2923485 L35.9758281,78.7563891 L35.9971949,78.7563146 L35.9971949,64.7763684 L35.9758281,64.7763684 L35.9758281,61.0759804 C35.9758281,57.9115915 38.5410722,55.3463475 41.7054611,55.3463475 L80.6192181,55.3463475 Z M73.5979111,63.1052254 L48.7695016,63.1052254 C47.516931,63.1052254 46.5015219,64.1206345 46.5015219,65.3732051 L46.5015219,78.0401105 C46.5015219,79.2926811 47.516931,80.3080902 48.7695016,80.3080902 L73.5979111,80.3080902 C74.8504817,80.3080902 75.8658908,79.2926811 75.8658908,78.0401105 L75.8658908,65.3732051 C75.8658908,64.1206345 74.8504817,63.1052254 73.5979111,63.1052254 Z M88.2540718,1.20230617 C88.9133195,1.20230617 89.4477453,1.73673201 89.4477453,2.3959797 L89.461555,4.02720108 C89.4834326,6.66409965 87.3636775,8.81960179 84.7267789,8.84164986 L84.6868573,8.84181676 L58.4693506,8.84181676 C57.890069,8.84181676 57.3944039,9.2577286 57.2938119,9.82820942 L55.8510854,18.0102513 C55.7366073,18.6594834 56.1701111,19.2785928 56.8193432,19.3930709 C56.8877754,19.4051374 56.9571305,19.4112054 57.0266184,19.4112057 L77.2982393,19.4112855 C81.1218699,19.4112855 84.2215305,22.5109767 84.2215458,26.3346073 L84.2215458,41.0709197 C84.2215674,41.7301589 84.7559801,42.2645813 85.4152193,42.2646147 L90.6953148,42.2646756 C91.3545625,42.2646756 91.8889884,42.7991015 91.8889884,43.4583491 L91.8889884,45.2488594 C91.8889884,47.8858502 89.751285,50.0235536 87.1142942,50.0235536 L31.6084751,50.0235536 C30.9492274,50.0235536 30.4148016,49.4891277 30.4148016,48.82988 L30.4148016,43.4583491 C30.4148016,42.7991015 30.9492274,42.2646756 31.6084751,42.2646756 L39.6639932,42.2645646 C40.2432701,42.2645598 40.7389292,41.8486502 40.8395215,41.2781741 L43.1643665,28.0935751 C43.2788458,27.4443432 42.8453432,26.825233 42.1961113,26.7107538 C42.1276735,26.6986861 42.0583126,26.692618 41.988819,26.6926185 L34.2067366,26.6927094 C33.5474889,26.6927094 33.013063,26.1582836 33.013063,25.4990359 L33.013063,20.6049744 C33.013063,19.9457267 33.5474889,19.4112855 34.2067366,19.4112855 L43.6935919,19.411205 C44.2728708,19.4112015 44.768532,18.9952905 44.8691235,18.4248123 L46.3118499,10.2427712 C46.4263279,9.59353909 45.9928242,8.9744297 45.3435921,8.85995163 C45.275158,8.84788477 45.205801,8.84181676 45.1363112,8.84181676 L33.9419261,8.84181676 C33.2826785,8.84181676 32.7482526,8.30739092 32.7482526,7.64814323 L32.7482526,2.3959797 C32.7482526,1.73673201 33.2826785,1.20230617 33.9419261,1.20230617 L88.2540718,1.20230617 Z M71.3299834,26.6926076 L55.3217513,26.6926076 C54.7424705,26.6926076 54.2468057,27.1085185 54.146213,27.6789985 L51.8213665,40.8636371 C51.7068875,41.512869 52.1403904,42.131979 52.7896223,42.246458 C52.8580569,42.2585251 52.9274145,42.2645932 52.9969049,42.2645932 L72.4042895,42.2645932 C73.0635372,42.2645932 73.5979631,41.7301673 73.5979631,41.0709197 L73.5979631,28.9606891 C73.5979631,27.7081185 72.582554,26.6926076 71.3299834,26.6926076 Z M16.1436459,1.004141 L16.1580658,1.03698161 C17.1623066,3.31509271 18.3870734,5.34294736 19.832366,7.12054555 C21.2776586,8.89814374 22.8999239,10.5760261 24.6991619,12.1541928 C25.262154,12.6765888 25.3129571,13.5500429 24.8143252,14.1341867 L20.5456416,19.1349204 C19.8608239,19.9371795 18.7672414,19.9371795 17.8530506,19.347567 C16.0237204,17.9858383 14.0962116,16.0197903 12.070524,13.4494229 L11.8741832,13.1987912 L11.775783,13.0720604 C11.6538592,12.9145717 11.5341456,12.7580029 11.4166421,12.6023539 L11.2420444,12.3695703 C11.0635256,12.1299897 10.8903055,11.8926145 10.7223843,11.6574447 L10.5562292,11.4230099 C9.07673028,9.31971345 8.02643109,7.39505139 7.40533168,5.64902376 C7.15820383,4.8472292 7.24654994,4.08765848 7.93217414,3.69300133 C7.95344216,3.68075909 7.97502127,3.66906541 7.99689009,3.65793188 L14.2627014,0.467973372 C14.9343643,0.12602616 15.8314762,0.322194547 16.1436459,1.004141 Z" id="形状"/>
        </g>
        <g id="雀" transform="translate(278.153984, 41.897941)" fill="#262626">
            <path d="M50.8803204,0 C51.5395681,0 52.0739939,0.534425843 52.0739939,1.19367353 L52.0740495,19.3709766 C52.076065,19.7665201 52.3983428,20.0855451 52.7938863,20.0835388 C52.9107187,20.0829462 53.0256322,20.0537807 53.1286119,19.9985961 C53.2021141,19.959201 53.2689798,19.9232035 53.3292089,19.8906036 C57.1709833,17.8111824 62.0247075,15.4782361 65.5045918,12.8911002 C65.6693508,12.7686094 65.8927333,12.6005771 66.1747395,12.3870032 L66.1751093,12.3874786 C66.3312199,12.2660532 66.3593379,12.0410657 66.2379124,11.8849551 C66.2229184,11.865678 66.2059918,11.8479854 66.1873969,11.8321534 C65.9988145,11.6761732 65.8781887,11.5696494 65.8233225,11.515162 C65.271088,10.9667397 64.7728536,10.2775948 64.449137,9.73883603 L64.4098781,9.67234663 L64.371558,9.60501775 L64.3343229,9.53694356 L64.3161579,9.50265641 L64.2808246,9.43364084 L64.2643325,9.40024775 L64.232421,9.33314944 L64.2020483,9.26570487 L64.1874797,9.23187895 L64.1596595,9.1640723 C64.1504858,9.14092836 64.1416371,9.11776063 64.1331367,9.09458405 L64.1087038,9.02504279 C63.9530929,8.56145712 63.9460945,8.10032077 64.2736046,7.76131103 C64.2868559,7.74759454 64.3004071,7.73417111 64.3142459,7.72104768 L68.4136386,3.96694521 C68.9149017,3.49178606 69.6951118,3.48294882 70.2067563,3.94068302 L70.2343945,3.96611306 C74.2375936,7.75389531 82.4054386,13.0744161 87.764376,14.4916449 L87.9264784,14.5339649 C88.5489615,14.6943545 88.9357293,15.3153729 88.8051264,15.9447797 L87.6234031,21.6398887 C87.4492817,22.4790361 86.6278651,23.0181462 85.7887177,22.8440249 C85.7858904,22.8434382 85.0147056,22.655238 82.3634736,21.6064107 C80.5959856,20.9071925 78.3742678,19.6810989 75.6983202,17.9281299 L75.3300874,17.7530139 C75.1230226,17.6538377 74.8775458,17.6832287 74.698891,17.8274282 C74.6301042,17.8832502 74.57206,17.9302375 74.5247583,17.9683901 C66.4360823,24.4925566 56.2871034,29.5089001 46.3184516,33.4157304 L46.0303181,33.5280041 L45.735219,33.6417365 L45.4336955,33.7567566 L45.1262887,33.8728931 L44.8135396,33.9899751 L44.4959892,34.1078313 L44.1741788,34.2262907 L43.8486493,34.3451821 L43.3545654,34.523955 L43.0221055,34.6431778 L42.6878202,34.7622339 L42.3522508,34.8809519 L41.9812971,35.0112937 L41.7338509,35.0977308 L41.3716696,35.2235305 L40.685247,35.4596655 L40.2318874,35.6140038 L39.6724071,35.8026871 L39.1234696,35.9858622 L38.6937263,36.1278622 L38.1705748,36.2989694 L37.7649618,36.4302076 L37.2763504,36.5864783 L36.994037,36.6757647 L36.5434768,36.8165233 L36.3707439,36.8698489 L36.1202112,36.9464759 L35.8030664,37.0420836 L33.1886632,37.8213271 C33.0623069,37.8589886 32.9904056,37.9919513 33.0280671,38.1183076 C33.0582707,38.2196424 33.1515357,38.289036 33.2572758,38.2888498 L52.8007727,38.2544316 C53.4600193,38.2532706 53.9935032,37.7179044 53.9923422,37.0586577 C53.992172,36.9620144 53.9802658,36.8657494 53.956885,36.7719768 L53.0466005,33.1211226 L53.0466005,33.1211226 C52.887114,32.4814574 53.2763758,31.833617 53.916041,31.6741305 C53.9508867,31.6654425 53.9861067,31.6583315 54.0215935,31.6528191 L62.2064476,30.3814152 C62.8115845,30.2874155 63.3896905,30.666603 63.5445491,31.2590939 L65.133617,37.3390213 C65.2710988,37.8650399 65.7466689,38.2316975 66.2903564,38.2308505 L86.2605807,38.1997395 L86.2605807,38.1997395 C86.9086536,38.1985644 87.4370368,38.7140703 87.4563774,39.357836 L87.4563774,39.4033465 L87.4341138,42.078076 C87.4162221,44.2275633 85.6707206,45.9617381 83.5211623,45.9656359 L61.7405568,46.0053477 C61.08216,46.0065482 60.5490596,46.5406214 60.5490596,47.1990193 L60.5490596,50.737381 C60.5490596,51.3966287 61.0834855,51.9310546 61.7427332,51.9310546 C61.7434722,51.9310546 61.7442112,51.9310539 61.7449502,51.9310525 L84.9474744,51.8879579 L84.9474744,51.8879579 C85.5955472,51.8867584 86.1239498,52.4022445 86.1428348,53.0460094 L86.143351,53.0855025 L86.1210078,55.766249 C86.1030799,57.9157701 84.3575834,59.6499761 82.2079911,59.6539548 L61.7405162,59.691968 C61.0821353,59.6931908 60.5490596,60.2272574 60.5490596,60.8856395 L60.5490596,63.7093874 C60.5490596,64.3686351 61.0834855,64.903061 61.7427332,64.903061 C61.7434728,64.903061 61.7442125,64.9030603 61.7449521,64.9030589 L84.9474744,64.8599267 L84.9474744,64.8599267 C85.5955472,64.8587272 86.1239498,65.3742133 86.1428348,66.0179782 L86.143351,66.0574713 L86.1210078,68.7382178 C86.1030799,70.8877389 84.3575834,72.6219449 82.2079911,72.6259236 L61.740514,72.6639742 C61.082134,72.6651982 60.5490596,73.1992644 60.5490596,73.8576457 L60.5490596,76.8045831 C60.5490596,77.4638308 61.0834855,77.9982566 61.7427332,77.9982566 C61.743433,77.9982566 61.7441329,77.998256 61.7448328,77.9982548 L88.5285688,77.9511433 L88.5285688,77.9511433 C89.1766418,77.950008 89.7049933,78.4655464 89.7242916,79.1093132 L89.7242916,79.1548154 L89.7018824,81.8295539 C89.6838738,83.9790369 87.9382728,85.7131096 85.7887177,85.7168753 L25.9371826,85.8174873 L25.9372015,87.078484 C25.9372015,87.7377317 25.4027756,88.2721576 24.7435279,88.2721576 L15.9103438,88.2721576 C15.2510961,88.2721576 14.7166703,87.7377317 14.7166703,87.078484 L14.7169336,43.7994128 C14.7170334,43.6675633 14.6102293,43.5605972 14.4783798,43.5604973 C14.4587978,43.5604825 14.4392884,43.5628769 14.4202873,43.5676109 C13.6595723,43.7575895 13.0756585,43.9025975 12.6685459,44.002635 L11.8270563,44.2084494 C10.8424314,44.4481556 7.17719806,45.213473 6.16825666,45.3903175 C5.49562905,45.5082138 5.00744382,45.5913797 4.70370095,45.6398151 C4.07240592,45.7863295 3.44187934,45.4024407 3.27913708,44.7792995 L3.2706756,44.7447986 L1.66612701,37.7648088 C1.51856849,37.1232794 1.9181619,36.4833509 2.55937382,36.3344187 C2.76141304,36.2765001 3.13270273,36.2002075 3.67324289,36.1055408 C4.48405314,35.9635408 14.4330667,33.7353642 18.2174121,32.7146597 L18.9977705,32.503152 L19.3859924,32.3971527 L20.1585212,32.1846632 L20.9258294,31.97152 L21.2322114,31.8858218 L21.8424538,31.7141101 C21.9438808,31.6854564 22.0451676,31.6567852 22.1463143,31.6280966 L22.7515135,31.4557546 C22.8520999,31.426996 22.9525461,31.3982198 23.0528522,31.3694262 L23.6530075,31.1964546 C23.7527532,31.1675911 23.8523587,31.1387101 23.9518241,31.1098116 L24.5469348,30.936211 L25.1386821,30.7621915 C25.2370264,30.7331534 25.3352305,30.7040978 25.4332944,30.6750247 L26.0199961,30.5003773 C26.2150026,30.4420917 26.4094485,30.3837365 26.6033336,30.3253115 L27.1833067,30.1498278 L27.7599151,29.9739262 C27.9515571,29.9152228 28.1426382,29.8564498 28.3331585,29.7976073 L28.9030365,29.6208711 C28.9977357,29.5913803 29.0922947,29.5618722 29.1867135,29.5323467 L29.751543,29.3549852 C30.0331163,29.2662003 30.3134273,29.1772593 30.5924759,29.0881622 L31.1488899,28.90976 L31.701937,28.730942 C31.793831,28.7011043 31.8855846,28.6712494 31.977198,28.6413771 L32.5251945,28.4619359 L33.0698235,28.2820795 C33.1603143,28.2520689 33.2506649,28.2220409 33.3408751,28.1919957 L33.8804523,28.0115172 C34.3286966,27.8609456 34.7734323,27.7099424 35.2146587,27.5585081 L35.7424459,27.3765802 L36.2668639,27.1942387 C36.4411083,27.1333894 36.6147911,27.0724711 36.7879123,27.0114841 L37.3055909,26.8283165 L37.8198994,26.6447362 C37.9053366,26.6141051 37.9906334,26.5834569 38.0757898,26.5527914 L38.5850426,26.3685927 C38.7542317,26.3071244 38.9228591,26.2455875 39.0909245,26.183982 L40.8848637,25.3387281 C41.3029581,25.1417337 41.5697604,24.7210876 41.5697585,24.2589082 L41.5696668,1.19367353 L41.5696668,1.19367353 C41.5696668,0.534425843 42.1040927,0 42.7633404,0 L50.8803204,0 Z M48.7297137,72.6878661 L27.1288782,72.7236595 C26.4704037,72.7247506 25.9371826,73.258856 25.9371826,73.9173313 L25.9371826,76.8610341 C25.9371826,77.5202818 26.4716084,78.0547076 27.1308561,78.0547076 C27.1314798,78.0547076 27.1321035,78.0547071 27.1327272,78.0547061 L48.7335627,78.0208475 C49.392079,78.0198153 49.9253652,77.4856926 49.9253652,76.8271755 L49.9253652,73.8815379 C49.9253652,73.2222903 49.3909394,72.6878644 48.7316917,72.6878644 C48.7310324,72.6878644 48.7303731,72.687865 48.7297137,72.6878661 Z M48.7297137,59.7158577 L27.1288782,59.7516511 C26.4704037,59.7527422 25.9371826,60.2868476 25.9371826,60.945323 L25.9371826,63.7689544 C25.9371826,64.4282021 26.4716084,64.962628 27.1308561,64.962628 C27.1315154,64.962628 27.1321748,64.9626274 27.1328341,64.9626263 L48.7336697,64.9268329 C49.3921441,64.9257418 49.9253652,64.3916364 49.9253652,63.733161 L49.9253652,60.9095296 C49.9253652,60.2502819 49.3909394,59.7158561 48.7316917,59.7158561 C48.7310324,59.7158561 48.7303731,59.7158566 48.7297137,59.7158577 Z M48.7297494,46.0286838 L27.1289138,46.0638322 C26.4704254,46.0649037 25.9371826,46.5990149 25.9371826,47.2575042 L25.9371826,50.7970655 C25.9371826,51.4563131 26.4716084,51.990739 27.1308561,51.990739 C27.1315154,51.990739 27.1321748,51.9907384 27.1328341,51.9907374 L48.7336697,51.9549439 C49.3921441,51.9538528 49.9253652,51.4197474 49.9253652,50.7612721 L49.9253652,47.2223557 C49.9253652,46.563108 49.3909394,46.0286822 48.7316917,46.0286822 C48.7310443,46.0286822 48.7303968,46.0286827 48.7297494,46.0286838 Z M28.1663447,3.85287665 L28.1979466,3.87513326 L33.2527165,7.53681809 C33.7916979,7.93551119 33.9128846,8.68930544 33.5321443,9.23586727 L33.5112668,9.26494593 L33.3930676,9.42335861 C29.5038953,14.5910753 19.6945284,20.6774486 12.7711647,22.8440249 L12.5387224,22.9158698 C12.4997526,22.9277334 12.4603893,22.9382636 12.4207013,22.9474421 C11.4696103,23.1673971 10.5202673,22.585113 10.2817303,21.6432862 L10.2727979,21.6064107 L8.88400652,15.6012424 C8.75493376,15.0431286 9.08647739,14.4819153 9.63759043,14.3256295 L9.83059838,14.2704745 L10.0662916,14.2017628 L10.277241,14.1385694 L10.419215,14.0947956 L10.5472707,14.0541258 L10.6249087,14.028737 C15.5215827,12.406324 23.4239071,7.6292886 26.1631036,4.24437686 L26.2455139,4.14171961 L26.2699924,4.11180576 C26.7412741,3.55130199 27.5620525,3.43923204 28.1663447,3.85287665 Z" id="形状"/>
        </g>
        <g id="logo" transform="translate(17.933154, 30.135279)">
            <g id="路径">
                <use fill="#31CC79" xlink:href="#path-2"/>
                <use fill-opacity="0.600000024" fill="url(#radialGradient-1)" xlink:href="#path-2"/>
            </g>
            <g id="Fill-12-Copy">
                <use fill="#93E65C" xlink:href="#path-4"/>
                <use fill-opacity="0.75" fill="url(#linearGradient-3)" style="mix-blend-mode: overlay;" xlink:href="#path-4"/>
            </g>
        </g>
    </g>
</svg>