<svg viewBox="0 0 1024 1024" xmlns="http://www.w3.org/2000/svg"><path d="m512 73.142857q119.428571 0 220.285714 58.857143t159.714286 159.714286 58.857143 220.285714q0 143.428571-83.714286 258t-216.285714 158.571429q-15.428571 2.857143-22.857143-4t-7.428571-17.142858q0-1.714286.285714-43.714285t.285714-76.857143q0-55.428571-29.714286-81.142857 32.571429-3.428571 58.571429-10.285715t53.714286-22.285714 46.285714-38 30.285714-60 11.714286-86q0-68-45.142857-117.714286 21.142857-52-4.571429-116.571428-16-5.142857-46.285714 6.285714t-52.571429 25.142857l-21.714285 13.714286q-53.142857-14.857143-109.714286-14.857143t-109.714286 14.857143q-9.142857-6.285714-24.285714-15.428571t-47.714286-22-48.571428-7.714286q-25.714286 64.571429-4.571429 116.571428-45.142857 49.714286-45.142857 117.714286 0 48.571429 11.714286 85.714286t30 60 46 38.285714 53.714285 22.285714 58.571429 10.285715q-22.285714 20.571429-28 58.857143-12 5.714286-25.714286 8.571428t-32.571428 2.857143-37.428572-12.285714-31.714285-35.714286q-10.857143-18.285714-27.714286-29.714286t-28.285714-13.714285l-11.428572-1.714286q-12 0-16.571428 2.571428t-2.857143 6.571429 5.142857 8 7.428571 6.857143l4 2.857143q12.571429 5.714286 24.857143 21.714285t18 29.142858l5.714286 13.142857q7.428571 21.714286 25.142857 35.142857t38.285714 17.142857 39.714286 4 31.714286-2l13.142857-2.285714q0 21.714286.285714 50.571428t.285714 31.142857q0 10.285714-7.428571 17.142858t-22.857143 4q-132.571429-44-216.285714-158.571429t-83.714286-258q0-119.428571 58.857143-220.285714t159.714286-159.714286 220.285714-58.857143zm-272.571429 630.285714q1.714286-4-4-6.857142-5.714286-1.714286-7.428571 1.142857-1.714286 4 4 6.857143 5.142857 3.428571 7.428571-1.142858zm17.714286 19.428572q4-2.857143-1.142857-9.142857-5.714286-5.142857-9.142857-1.714286-4 2.857143 1.142857 9.142857 5.714286 5.714286 9.142857 1.714286zm17.142857 25.714286q5.142857-4 0-10.857143-4.571429-7.428571-9.714285-3.428572-5.142857 2.857143 0 10.285715t9.714285 4zm24 24q4.571429-4.571429-2.285714-10.857143-6.857143-6.857143-11.428571-1.714286-5.142857 4.571429 2.285714 10.857143 6.857143 6.857143 11.428571 1.714286zm32.571429 14.285714q1.714286-6.285714-7.428572-9.142857-8.571429-2.285714-10.857142 4t7.428571 8.571428q8.571429 3.428571 10.857143-3.428571zm36 2.857143q0-7.428571-9.714286-6.285715-9.142857 0-9.142857 6.285715 0 7.428571 9.714286 6.285714 9.142857 0 9.142857-6.285714zm33.142857-5.714286q-1.142857-6.285714-10.285714-5.142857-9.142857 1.714286-8 8.571428t10.285714 4.571429 8-8z"/></svg>