<svg viewBox="0 0 344 344" xmlns="http://www.w3.org/2000/svg"><path d="m310.4 301.9-62.4-76c19.2-20.3 31.2-46.2 34-74.4 3.3-33.6-6.7-66.4-28.1-92.5s-51.7-42.2-85.3-45.5-66.5 6.7-92.6 28.1c-53.8 44.2-61.6 124-17.4 177.8 24.3 29.5 60.2 46.1 97.6 46.1 7.9 0 15.9-.7 23.9-2.3 8.6-1.6 14.2-9.9 12.5-18.5-1.6-8.6-10-14.2-18.5-12.5-34.1 6.5-69-6.1-91.1-32.9-33.1-40.3-27.2-100.1 13.1-133.3 19.5-16.1 44.2-23.6 69.4-21.1s47.9 14.6 64 34.1c33.2 40.4 27.3 100.2-13 133.3-6.7 5.5-7.7 15.5-2.2 22.2l71.7 87.5c3.1 3.8 7.7 5.8 12.2 5.8 3.5 0 7.1-1.2 10-3.6 6.8-5.6 7.8-15.6 2.2-22.3z"/><path clip-rule="evenodd" d="m310.4 301.9-62.4-76c19.2-20.3 31.2-46.2 34-74.4 3.3-33.6-6.7-66.4-28.1-92.5s-51.7-42.2-85.3-45.5-66.5 6.7-92.6 28.1c-53.8 44.2-61.6 124-17.4 177.8 24.3 29.5 60.2 46.1 97.6 46.1 7.9 0 15.9-.7 23.9-2.3 8.6-1.6 14.2-9.9 12.5-18.5-1.6-8.6-10-14.2-18.5-12.5-34.1 6.5-69-6.1-91.1-32.9-33.1-40.3-27.2-100.1 13.1-133.3 19.5-16.1 44.2-23.6 69.4-21.1s47.9 14.6 64 34.1c33.2 40.4 27.3 100.2-13 133.3-6.7 5.5-7.7 15.5-2.2 22.2l71.7 87.5c3.1 3.8 7.7 5.8 12.2 5.8 3.5 0 7.1-1.2 10-3.6 6.8-5.6 7.8-15.6 2.2-22.3zm-5.2 4.3-66.2-80.6 4.1-4.3c9.2-9.6 16.5-20.4 21.9-32.4 5.5-12 8.9-24.7 10.2-38.1 1.6-15.9 0-31.4-4.6-46.5s-11.9-28.8-22.1-41.1c-10.1-12.3-22.2-22.2-36.1-29.6s-28.8-11.9-44.7-13.5-31.4 0-46.5 4.5c-15.1 4.6-28.8 12-41.1 22.1-12.3 10.4-22.3 22.7-29.7 36.9-7.2 13.8-11.6 28.4-13.1 44-1.5 15.5-.1 30.8 4.3 45.7 4.6 15.4 12 29.4 22.3 41.9 5.7 6.9 12.1 13.1 19.1 18.6 7 5.4 14.4 10 22.4 13.7 7.9 3.7 16.2 6.5 24.7 8.5 8.6 1.9 17.3 2.9 26.1 2.9 7.6 0 15.1-.7 22.6-2.1 2.5-.5 4.4-1.7 5.8-3.8s1.9-4.3 1.4-6.8c-.5-2.4-1.7-4.4-3.8-5.8s-4.3-1.9-6.8-1.4c-9.1 1.7-18.2 2.2-27.4 1.5-9-.7-17.8-2.6-26.3-5.7s-16.5-7.2-23.9-12.4c-7.5-5.3-14.2-11.5-20.1-18.6-8.7-10.6-15-22.5-18.9-35.6-3.7-12.6-5-25.6-3.7-38.7 1.3-13.2 5-25.6 11.1-37.3 6.3-12.1 14.8-22.5 25.4-31.2 10.5-8.6 22.1-14.9 34.9-18.7 12.8-3.9 25.9-5.2 39.4-3.9s26.1 5.1 37.9 11.4 22 14.7 30.6 25.1c8.7 10.6 15 22.5 18.9 35.6 3.7 12.6 5 25.6 3.7 38.7-1.3 13.2-5 25.6-11.1 37.3-6.3 12.1-14.8 22.5-25.4 31.2-1.9 1.6-3 3.6-3.3 6.1-.2 2.5.4 4.7 2 6.6l71.8 87.3c.9 1.1 1.9 1.9 3.2 2.5 1.2.6 2.5.8 3.8.8 2.2 0 4.1-.7 5.7-2.1 1.9-1.6 3-3.6 3.3-6.1.5-2.5-.2-4.7-1.8-6.6z" fill-rule="evenodd"/></svg>